<!-- Generator: Adobe Illustrator 21.1.0, SVG Export Plug-In  -->
<svg version="1.1"
	 xmlns="http://www.w3.org/2000/svg" xmlns:xlink="http://www.w3.org/1999/xlink" xmlns:a="http://ns.adobe.com/AdobeSVGViewerExtensions/3.0/"
	 x="0px" y="0px" width="126.058px" height="118.945px" viewBox="0 0 126.058 118.945"
	 style="enable-background:new 0 0 126.058 118.945;" xml:space="preserve">
<style type="text/css">
	.st0{fill:#FFFFFF;}
	.st1{font-family:'FuturaBT-Heavy';}
	.st2{font-size:59.8162px;}
</style>
<defs>
</defs>
<g>
	<path class="st0" d="M4.79,51.292V8.533h8.003c4.147,0,7.18,0.16,9.098,0.481s3.578,0.852,4.979,1.592
		c1.655,0.954,2.936,2.21,3.841,3.768c0.906,1.559,1.358,3.32,1.358,5.287c0,2.531-0.75,4.56-2.249,6.088
		c-1.499,1.529-3.738,2.547-6.718,3.053c3.446,0.506,6.051,1.626,7.813,3.358c1.762,1.733,2.643,4.041,2.643,6.922
		c0,2.104-0.506,4.026-1.519,5.769c-1.013,1.743-2.405,3.092-4.177,4.046c-1.577,0.856-3.427,1.47-5.549,1.84
		c-2.123,0.37-5.637,0.555-10.544,0.555h-0.935H4.79z M13.932,25.619h2.045c2.765,0,4.722-0.39,5.87-1.169
		c1.148-0.778,1.724-2.083,1.724-3.913c0-1.791-0.551-3.067-1.65-3.826c-1.101-0.76-3.022-1.14-5.769-1.14h-2.22V25.619z
		 M13.932,44.165h3.593c2.297,0,4.04-0.501,5.228-1.504s1.782-2.468,1.782-4.396c0-1.811-0.589-3.193-1.768-4.147
		c-1.178-0.954-2.887-1.431-5.126-1.431h-3.709V44.165z"/>
	<path class="st0" d="M40.102,51.292V6.021h8.295v45.271H40.102z"/>
	<path class="st0" d="M86.979,37.068c0,4.4-1.504,8.061-4.512,10.981c-3.009,2.921-6.82,4.381-11.435,4.381
		c-4.654,0-8.49-1.46-11.508-4.381c-3.019-2.921-4.527-6.581-4.527-10.981c0-4.381,1.519-8.042,4.557-10.982
		c3.037-2.939,6.863-4.41,11.479-4.41c4.634,0,8.45,1.451,11.449,4.352C85.479,28.929,86.979,32.609,86.979,37.068z M78.509,37.009
		c0-2.337-0.682-4.201-2.045-5.593c-1.362-1.393-3.193-2.089-5.49-2.089c-2.298,0-4.118,0.691-5.462,2.074s-2.016,3.252-2.016,5.607
		c0,2.337,0.672,4.206,2.016,5.607c1.344,1.402,3.164,2.104,5.462,2.104c2.278,0,4.104-0.701,5.477-2.104
		C77.822,41.215,78.509,39.346,78.509,37.009z"/>
	<path class="st0" d="M121.91,50.824c0,3.019-0.181,5.141-0.54,6.367c-0.36,1.228-0.979,2.288-1.854,3.184
		c-1.247,1.344-2.844,2.337-4.79,2.979c-1.947,0.643-4.313,0.964-7.098,0.964c-4.654,0-8.188-0.74-10.603-2.22
		s-3.729-3.729-3.942-6.747h9.142c0.136,1.11,0.643,1.928,1.519,2.454c0.876,0.525,2.171,0.788,3.885,0.788
		c2.259,0,3.889-0.584,4.893-1.752c1.002-1.169,1.504-3.116,1.504-5.842v-4.089c-1.11,1.771-2.449,3.086-4.016,3.942
		c-1.568,0.857-3.423,1.285-5.564,1.285c-3.934,0-7.078-1.377-9.434-4.133c-2.356-2.755-3.534-6.469-3.534-11.143
		c0-4.75,1.148-8.47,3.446-11.157c2.297-2.687,5.472-4.03,9.521-4.03c2.083,0,3.938,0.482,5.564,1.446
		c1.625,0.964,2.983,2.38,4.074,4.249v-4.731h7.827V50.824z M114.375,36.921c0-2.531-0.643-4.527-1.928-5.987
		s-3.038-2.19-5.258-2.19c-2.277,0-4.06,0.726-5.345,2.176c-1.285,1.451-1.928,3.451-1.928,6.002s0.633,4.537,1.898,5.958
		c1.266,1.422,3.038,2.133,5.316,2.133c2.277,0,4.055-0.711,5.33-2.133C113.736,41.458,114.375,39.472,114.375,36.921z"/>
</g>
<polygon class="st0" points="3.187,118.945 3.187,62.406 59.726,62.406 "/>
<circle class="st0" cx="55.687" cy="111.541" r="7.404"/>
</svg>