<!-- Generator: Adobe Illustrator 21.1.0, SVG Export Plug-In  -->
<svg version="1.1"
	 xmlns="http://www.w3.org/2000/svg" xmlns:xlink="http://www.w3.org/1999/xlink" xmlns:a="http://ns.adobe.com/AdobeSVGViewerExtensions/3.0/"
	 x="0px" y="0px" width="190.226px" height="118.945px" viewBox="0 0 190.226 118.945"
	 style="enable-background:new 0 0 190.226 118.945;" xml:space="preserve">
<style type="text/css">
	.st0{fill:#FFFFFF;}
	.st1{font-family:'FuturaBT-Heavy';}
	.st2{font-size:59.8162px;}
	.st3{letter-spacing:-1;}
</style>
<defs>
</defs>
<g>
	<path class="st0" d="M4.79,51.292V8.533h10.515c5.607,0,9.75,1.07,12.428,3.212c2.677,2.143,4.016,5.452,4.016,9.931
		c0,4.147-1.349,7.399-4.045,9.755c-2.697,2.356-6.431,3.534-11.201,3.534H13.99v16.327H4.79z M13.99,27.839h1.314
		c2.492,0,4.303-0.516,5.433-1.548c1.129-1.032,1.693-2.688,1.693-4.966c0-2.103-0.564-3.636-1.693-4.6
		c-1.13-0.964-2.94-1.446-5.433-1.446H13.99V27.839z"/>
	<path class="st0" d="M44.308,30c0.837-2.784,2.039-4.867,3.607-6.25c1.566-1.383,3.509-2.074,5.826-2.074
		c0.526,0,1.393,0.098,2.6,0.292c0.233,0.039,0.409,0.068,0.525,0.088l-1.256,8.938c-0.623-0.253-1.251-0.442-1.884-0.569
		s-1.3-0.19-2-0.19c-2.532,0-4.353,0.647-5.462,1.942c-1.11,1.295-1.665,3.461-1.665,6.499v12.617h-8.324V22.64h8.207L44.308,30z"/>
	<path class="st0" d="M90.775,37.068c0,4.4-1.504,8.061-4.512,10.981c-3.009,2.921-6.82,4.381-11.435,4.381
		c-4.654,0-8.49-1.46-11.508-4.381c-3.019-2.921-4.527-6.581-4.527-10.981c0-4.381,1.519-8.042,4.557-10.982
		c3.037-2.939,6.863-4.41,11.479-4.41c4.634,0,8.45,1.451,11.449,4.352C89.276,28.93,90.775,32.609,90.775,37.068z M82.306,37.01
		c0-2.337-0.682-4.201-2.045-5.593c-1.362-1.393-3.193-2.089-5.49-2.089c-2.298,0-4.118,0.691-5.462,2.074s-2.016,3.252-2.016,5.607
		c0,2.337,0.672,4.206,2.016,5.607c1.344,1.402,3.164,2.104,5.462,2.104c2.278,0,4.104-0.701,5.477-2.104
		C81.619,41.216,82.306,39.347,82.306,37.01z"/>
	<path class="st0" d="M96.646,10.869c0-1.324,0.477-2.463,1.431-3.417s2.093-1.432,3.417-1.432c1.344,0,2.497,0.473,3.461,1.417
		s1.446,2.088,1.446,3.432s-0.482,2.493-1.446,3.446c-0.964,0.954-2.117,1.432-3.461,1.432c-1.324,0-2.463-0.486-3.417-1.461
		C97.123,13.313,96.646,12.174,96.646,10.869z M97.376,64.318V22.64h8.295v41.679H97.376z"/>
	<path class="st0" d="M142.093,39.025h-21.525c0.331,2.063,1.081,3.606,2.249,4.629s2.755,1.533,4.761,1.533
		c1.519,0,2.828-0.292,3.929-0.876c1.1-0.584,2.02-1.47,2.76-2.658l6.718,3.359c-1.559,2.512-3.446,4.376-5.666,5.593
		c-2.221,1.217-4.859,1.825-7.916,1.825c-4.634,0-8.305-1.382-11.011-4.147c-2.707-2.765-4.06-6.483-4.06-11.156
		c0-4.498,1.416-8.197,4.249-11.1c2.834-2.9,6.46-4.352,10.88-4.352c4.557,0,8.158,1.358,10.807,4.074
		c2.648,2.717,3.973,6.421,3.973,11.113c0,0.254-0.011,0.531-0.029,0.833C142.19,37.998,142.151,38.44,142.093,39.025z
		 M133.856,34.001c-0.233-1.811-0.891-3.178-1.972-4.104c-1.08-0.924-2.556-1.387-4.425-1.387s-3.363,0.463-4.483,1.387
		c-1.119,0.926-1.835,2.293-2.146,4.104H133.856z"/>
	<path class="st0" d="M169.519,50.445c-1.13,0.682-2.317,1.183-3.563,1.504s-2.609,0.481-4.089,0.481
		c-4.518,0-8.197-1.436-11.04-4.308c-2.844-2.872-4.265-6.605-4.265-11.201c0-4.498,1.432-8.163,4.294-10.996
		s6.571-4.25,11.127-4.25c1.52,0,2.882,0.146,4.09,0.438c1.207,0.292,2.355,0.75,3.446,1.372l-0.059,8.354
		c-0.876-0.896-1.889-1.587-3.037-2.073c-1.149-0.486-2.366-0.73-3.651-0.73c-2.337,0-4.206,0.716-5.607,2.146
		c-1.402,1.432-2.104,3.325-2.104,5.681c0,2.415,0.716,4.338,2.147,5.769c1.431,1.432,3.363,2.146,5.797,2.146
		c1.344,0,2.536-0.243,3.578-0.729c1.041-0.486,2.001-1.246,2.877-2.278L169.519,50.445z"/>
	<path class="st0" d="M176.82,51.292V29.153h-4.001V22.64h4.001v-9.521h8.324v9.521h4.001v6.514h-4.001v22.139H176.82z"/>
</g>
<polygon class="st0" points="3.186,118.945 3.186,62.406 59.725,62.406 "/>
<circle class="st0" cx="55.687" cy="111.541" r="7.404"/>
</svg>