<!-- Generator: Adobe Illustrator 21.1.0, SVG Export Plug-In  -->
<svg version="1.1"
	 xmlns="http://www.w3.org/2000/svg" xmlns:xlink="http://www.w3.org/1999/xlink" xmlns:a="http://ns.adobe.com/AdobeSVGViewerExtensions/3.0/"
	 x="0px" y="0px" width="314.152px" height="118.945px" viewBox="0 0 314.152 118.945"
	 style="enable-background:new 0 0 314.152 118.945;" xml:space="preserve">
<style type="text/css">
	.st0{fill:#FFFFFF;}
	.st1{font-family:'FuturaBT-Heavy';}
	.st2{font-size:59.8162px;}
</style>
<defs>
</defs>
<g>
	<path class="st0" d="M4.79,51.292V8.533h10.515c5.607,0,9.75,1.07,12.428,3.212c2.677,2.143,4.016,5.452,4.016,9.931
		c0,4.147-1.349,7.399-4.045,9.755c-2.697,2.356-6.431,3.534-11.201,3.534H13.99v16.327H4.79z M13.99,27.839h1.314
		c2.492,0,4.303-0.516,5.433-1.548c1.129-1.032,1.693-2.688,1.693-4.966c0-2.103-0.564-3.636-1.693-4.6
		c-1.13-0.964-2.94-1.446-5.433-1.446H13.99V27.839z"/>
	<path class="st0" d="M45.476,22.64v15.071c0,2.531,0.491,4.342,1.475,5.433s2.585,1.635,4.805,1.635c2.2,0,3.797-0.55,4.79-1.649
		c0.993-1.101,1.489-2.906,1.489-5.418V22.64h8.324v15.071c0,5.043-1.179,8.757-3.534,11.143c-2.356,2.385-6.007,3.577-10.953,3.577
		c-5.043,0-8.747-1.188-11.113-3.562c-2.365-2.376-3.548-6.095-3.548-11.157V22.64H45.476z"/>
	<path class="st0" d="M74.361,51.292V6.021h7.974v16.327c0,0.896-0.034,1.787-0.103,2.673s-0.16,1.747-0.277,2.585
		c1.363-2.064,2.843-3.568,4.439-4.513s3.427-1.417,5.491-1.417c4.089,0,7.277,1.349,9.565,4.045
		c2.288,2.697,3.432,6.46,3.432,11.289c0,4.654-1.158,8.388-3.476,11.201s-5.364,4.22-9.142,4.22c-2.278,0-4.211-0.423-5.798-1.271
		c-1.587-0.847-2.945-2.176-4.074-3.986l0.059,4.118H74.361z M81.955,36.922c0,2.59,0.638,4.605,1.913,6.046
		c1.275,1.441,3.053,2.161,5.331,2.161c2.277,0,4.055-0.72,5.33-2.161c1.274-1.44,1.913-3.456,1.913-6.046
		c0-2.589-0.647-4.629-1.942-6.119c-1.295-1.489-3.081-2.234-5.359-2.234c-2.201,0-3.948,0.75-5.243,2.249
		C82.603,32.317,81.955,34.352,81.955,36.922z"/>
	<path class="st0" d="M111.542,51.292V6.021h8.295v45.271H111.542z"/>
	<path class="st0" d="M127.869,10.869c0-1.324,0.477-2.463,1.431-3.417s2.093-1.432,3.417-1.432c1.344,0,2.497,0.473,3.461,1.417
		s1.446,2.088,1.446,3.432s-0.482,2.493-1.446,3.446c-0.964,0.954-2.117,1.432-3.461,1.432c-1.324,0-2.463-0.486-3.417-1.461
		C128.346,13.313,127.869,12.174,127.869,10.869z M128.599,51.292V22.64h8.295v28.652H128.599z"/>
	<path class="st0" d="M166.452,50.445c-1.13,0.682-2.317,1.183-3.563,1.504s-2.609,0.481-4.089,0.481
		c-4.518,0-8.197-1.436-11.04-4.308c-2.844-2.872-4.265-6.605-4.265-11.201c0-4.498,1.432-8.163,4.294-10.996
		s6.571-4.25,11.127-4.25c1.52,0,2.882,0.146,4.09,0.438c1.207,0.292,2.355,0.75,3.446,1.372l-0.059,8.354
		c-0.876-0.896-1.889-1.587-3.037-2.073c-1.149-0.486-2.366-0.73-3.651-0.73c-2.337,0-4.206,0.716-5.607,2.146
		c-1.402,1.432-2.104,3.325-2.104,5.681c0,2.415,0.716,4.338,2.147,5.769c1.431,1.432,3.363,2.146,5.797,2.146
		c1.344,0,2.536-0.243,3.578-0.729c1.041-0.486,2.001-1.246,2.877-2.278L166.452,50.445z"/>
	<path class="st0" d="M201.441,51.292h-8.062l0.117-4.118c-1.13,1.811-2.487,3.14-4.074,3.986c-1.588,0.848-3.52,1.271-5.798,1.271
		c-3.797,0-6.859-1.411-9.186-4.234c-2.327-2.823-3.49-6.552-3.49-11.187c0-4.829,1.144-8.592,3.432-11.289
		c2.288-2.696,5.467-4.045,9.536-4.045c2.122,0,3.986,0.478,5.593,1.432s2.955,2.376,4.046,4.264V22.64h7.886V51.292z
		 M193.848,36.922c0-2.57-0.647-4.604-1.942-6.104c-1.295-1.499-3.043-2.249-5.243-2.249c-2.259,0-4.035,0.745-5.33,2.234
		c-1.295,1.49-1.942,3.53-1.942,6.119c0,2.59,0.638,4.605,1.913,6.046c1.275,1.441,3.042,2.161,5.302,2.161
		c2.297,0,4.078-0.72,5.345-2.161C193.215,41.527,193.848,39.512,193.848,36.922z"/>
	<path class="st0" d="M210.291,51.292V29.153h-4.001V22.64h4.001v-9.521h8.324v9.521h4.001v6.514h-4.001v22.139H210.291z"/>
	<path class="st0" d="M227.349,10.869c0-1.324,0.477-2.463,1.431-3.417s2.093-1.432,3.417-1.432c1.344,0,2.497,0.473,3.461,1.417
		s1.446,2.088,1.446,3.432s-0.482,2.493-1.446,3.446c-0.964,0.954-2.117,1.432-3.461,1.432c-1.324,0-2.463-0.486-3.417-1.461
		C227.825,13.313,227.349,12.174,227.349,10.869z M228.078,51.292V22.64h8.295v28.652H228.078z"/>
	<path class="st0" d="M274.955,37.068c0,4.4-1.504,8.061-4.512,10.981c-3.009,2.921-6.82,4.381-11.435,4.381
		c-4.654,0-8.49-1.46-11.508-4.381c-3.019-2.921-4.527-6.581-4.527-10.981c0-4.381,1.519-8.042,4.557-10.982
		c3.037-2.939,6.863-4.41,11.479-4.41c4.634,0,8.45,1.451,11.449,4.352C273.456,28.93,274.955,32.609,274.955,37.068z
		 M266.485,37.01c0-2.337-0.682-4.201-2.045-5.593c-1.362-1.393-3.193-2.089-5.49-2.089c-2.298,0-4.118,0.691-5.462,2.074
		s-2.016,3.252-2.016,5.607c0,2.337,0.672,4.206,2.016,5.607c1.344,1.402,3.164,2.104,5.462,2.104c2.278,0,4.104-0.701,5.477-2.104
		C265.799,41.216,266.485,39.347,266.485,37.01z"/>
	<path class="st0" d="M281.235,51.292V22.64h8.149v4.498c1.499-1.869,3.11-3.246,4.833-4.133c1.724-0.886,3.637-1.329,5.739-1.329
		c2.22,0,4.084,0.375,5.594,1.125c1.509,0.749,2.701,1.894,3.577,3.432c0.429,0.799,0.735,1.699,0.921,2.701
		c0.185,1.003,0.277,2.575,0.277,4.718v0.905v16.735h-8.324V37.127c0-3.524-0.409-5.852-1.227-6.98
		c-0.818-1.13-2.22-1.694-4.206-1.694c-1.149,0-2.205,0.238-3.169,0.716c-0.964,0.477-1.767,1.153-2.409,2.029
		c-0.507,0.682-0.872,1.461-1.096,2.337s-0.336,2.21-0.336,4.001v1.14v12.617H281.235z"/>
</g>
<polygon class="st0" points="3.186,118.945 3.186,62.406 59.725,62.406 "/>
<circle class="st0" cx="55.687" cy="111.541" r="7.404"/>
</svg>