<!-- Generator: Adobe Illustrator 21.1.0, SVG Export Plug-In  -->
<svg version="1.1"
	 xmlns="http://www.w3.org/2000/svg" xmlns:xlink="http://www.w3.org/1999/xlink" xmlns:a="http://ns.adobe.com/AdobeSVGViewerExtensions/3.0/"
	 x="0px" y="0px" width="237.593px" height="118.945px" viewBox="0 0 237.593 118.945"
	 style="enable-background:new 0 0 237.593 118.945;" xml:space="preserve">
<style type="text/css">
	.st0{fill:#FFFFFF;}
	.st1{font-family:'FuturaBT-Heavy';}
	.st2{font-size:59.8162px;}
</style>
<defs>
</defs>
<g>
	<path class="st0" d="M1.081,51.292L7.594,8.533h9.58l8.236,25.176c0.176,0.526,0.365,1.296,0.569,2.308
		c0.205,1.013,0.395,2.172,0.569,3.476c0.156-1.324,0.331-2.507,0.526-3.549c0.194-1.041,0.38-1.806,0.555-2.292l8.383-25.118h9.434
		l6.542,42.759h-8.674l-3.125-25.79c-0.234-1.908-0.391-3.349-0.468-4.322c-0.078-0.974-0.117-1.879-0.117-2.717
		c0-0.447,0.005-0.783,0.015-1.008c0.01-0.224,0.024-0.423,0.044-0.599c-0.292,1.675-0.569,3.121-0.832,4.338
		s-0.502,2.137-0.716,2.76l-9.054,27.338h-5.141l-8.908-27.338c-0.078-0.253-0.248-0.954-0.512-2.103
		c-0.263-1.149-0.628-2.823-1.095-5.024v1.256c0,1.986-0.176,4.421-0.526,7.303l-0.028,0.116l-3.097,25.79H1.081z"/>
	<path class="st0" d="M85.168,39.025H63.643c0.331,2.063,1.081,3.606,2.249,4.629s2.755,1.533,4.761,1.533
		c1.519,0,2.828-0.292,3.929-0.876c1.1-0.584,2.02-1.47,2.76-2.658l6.718,3.359c-1.559,2.512-3.446,4.376-5.666,5.593
		c-2.221,1.217-4.859,1.825-7.916,1.825c-4.634,0-8.305-1.382-11.011-4.147c-2.707-2.765-4.06-6.483-4.06-11.156
		c0-4.498,1.416-8.197,4.249-11.1c2.834-2.9,6.46-4.352,10.88-4.352c4.557,0,8.158,1.358,10.807,4.074
		c2.648,2.717,3.973,6.421,3.973,11.113c0,0.254-0.011,0.531-0.029,0.833C85.266,37.998,85.227,38.44,85.168,39.025z M76.932,34.001
		c-0.233-1.811-0.891-3.178-1.972-4.104c-1.08-0.924-2.556-1.387-4.425-1.387s-3.363,0.463-4.483,1.387
		c-1.119,0.926-1.835,2.293-2.146,4.104H76.932z"/>
	<path class="st0" d="M99.684,51.292H91.36V22.64h8.323v4.498c1.363-1.889,2.819-3.271,4.367-4.147s3.305-1.314,5.271-1.314
		c2.375,0,4.309,0.487,5.798,1.461s2.546,2.443,3.169,4.41c1.324-1.947,2.828-3.412,4.513-4.396
		c1.684-0.983,3.528-1.476,5.534-1.476c2.025,0,3.743,0.375,5.155,1.125c1.411,0.749,2.507,1.874,3.286,3.373
		c0.408,0.817,0.7,1.743,0.876,2.774c0.175,1.032,0.263,2.6,0.263,4.703v0.905v16.735h-8.324V37.127
		c0-3.485-0.355-5.803-1.065-6.952c-0.711-1.148-1.953-1.723-3.725-1.723c-2.142,0-3.694,0.799-4.658,2.395
		c-0.964,1.597-1.445,4.206-1.445,7.828v12.617h-8.324V37.127c0-3.369-0.331-5.647-0.993-6.835s-1.802-1.781-3.417-1.781
		c-2.201,0-3.797,0.803-4.79,2.409s-1.49,4.191-1.49,7.755V51.292z"/>
	<path class="st0" d="M145.86,51.292V6.021h7.974v16.327c0,0.896-0.034,1.787-0.103,2.673s-0.16,1.747-0.277,2.585
		c1.363-2.064,2.843-3.568,4.439-4.513s3.427-1.417,5.491-1.417c4.089,0,7.277,1.349,9.565,4.045
		c2.288,2.697,3.432,6.46,3.432,11.289c0,4.654-1.158,8.388-3.476,11.201s-5.364,4.22-9.142,4.22c-2.278,0-4.211-0.423-5.798-1.271
		c-1.587-0.847-2.945-2.176-4.074-3.986l0.059,4.118H145.86z M153.454,36.922c0,2.59,0.638,4.605,1.913,6.046
		c1.275,1.441,3.053,2.161,5.331,2.161c2.277,0,4.055-0.72,5.33-2.161c1.274-1.44,1.913-3.456,1.913-6.046
		c0-2.589-0.647-4.629-1.942-6.119c-1.295-1.489-3.081-2.234-5.359-2.234c-2.201,0-3.948,0.75-5.243,2.249
		C154.102,32.317,153.454,34.352,153.454,36.922z"/>
	<path class="st0" d="M210.7,39.025h-21.525c0.331,2.063,1.081,3.606,2.249,4.629s2.755,1.533,4.761,1.533
		c1.519,0,2.828-0.292,3.929-0.876c1.1-0.584,2.02-1.47,2.76-2.658l6.718,3.359c-1.559,2.512-3.446,4.376-5.666,5.593
		c-2.221,1.217-4.859,1.825-7.916,1.825c-4.634,0-8.305-1.382-11.011-4.147c-2.707-2.765-4.06-6.483-4.06-11.156
		c0-4.498,1.416-8.197,4.249-11.1c2.834-2.9,6.46-4.352,10.88-4.352c4.557,0,8.158,1.358,10.807,4.074
		c2.648,2.717,3.973,6.421,3.973,11.113c0,0.254-0.011,0.531-0.029,0.833C210.798,37.998,210.759,38.44,210.7,39.025z
		 M202.464,34.001c-0.233-1.811-0.891-3.178-1.972-4.104c-1.08-0.924-2.556-1.387-4.425-1.387s-3.363,0.463-4.483,1.387
		c-1.119,0.926-1.835,2.293-2.146,4.104H202.464z"/>
	<path class="st0" d="M225.041,30c0.837-2.784,2.039-4.867,3.607-6.25c1.566-1.383,3.509-2.074,5.826-2.074
		c0.526,0,1.393,0.098,2.6,0.292c0.233,0.039,0.409,0.068,0.525,0.088l-1.256,8.938c-0.623-0.253-1.251-0.442-1.884-0.569
		s-1.3-0.19-2-0.19c-2.532,0-4.353,0.647-5.462,1.942c-1.11,1.295-1.665,3.461-1.665,6.499v12.617h-8.324V22.64h8.207L225.041,30z"
		/>
</g>
<polygon class="st0" points="3.186,118.945 3.186,62.406 59.725,62.406 "/>
<circle class="st0" cx="55.687" cy="111.541" r="7.404"/>
</svg>