<!-- Generator: Adobe Illustrator 21.1.0, SVG Export Plug-In  -->
<svg version="1.1"
	 xmlns="http://www.w3.org/2000/svg" xmlns:xlink="http://www.w3.org/1999/xlink" xmlns:a="http://ns.adobe.com/AdobeSVGViewerExtensions/3.0/"
	 x="0px" y="0px" width="160.318px" height="118.945px" viewBox="0 0 160.318 118.945"
	 style="enable-background:new 0 0 160.318 118.945;" xml:space="preserve">
<style type="text/css">
	.st0{fill:#FFFFFF;}
	.st1{font-family:'FuturaBT-Heavy';}
	.st2{font-size:59.8162px;}
</style>
<defs>
</defs>
<g>
	<path class="st0" d="M4.79,51.292V8.533h9.492l18.927,24.883c0.544,0.701,1.144,1.689,1.796,2.965s1.329,2.779,2.029,4.513
		c-0.214-1.266-0.37-2.521-0.467-3.768c-0.098-1.246-0.146-2.805-0.146-4.674V8.533h8.733v42.758h-8.967L16.735,25.94
		c-0.545-0.701-1.139-1.689-1.781-2.965s-1.324-2.798-2.045-4.571c0.215,1.228,0.37,2.469,0.468,3.724
		c0.097,1.256,0.146,2.838,0.146,4.746v24.417H4.79z"/>
	<path class="st0" d="M81.926,39.025H60.4c0.331,2.063,1.081,3.606,2.249,4.629s2.755,1.533,4.761,1.533
		c1.519,0,2.828-0.292,3.929-0.876c1.1-0.584,2.02-1.47,2.76-2.658l6.718,3.359c-1.559,2.512-3.446,4.376-5.666,5.593
		c-2.221,1.217-4.859,1.825-7.916,1.825c-4.634,0-8.305-1.382-11.011-4.147c-2.707-2.765-4.06-6.483-4.06-11.156
		c0-4.498,1.416-8.197,4.249-11.1c2.834-2.9,6.46-4.352,10.88-4.352c4.557,0,8.158,1.358,10.807,4.074
		c2.648,2.717,3.973,6.421,3.973,11.113c0,0.254-0.011,0.531-0.029,0.833C82.023,37.998,81.984,38.44,81.926,39.025z M73.689,34
		c-0.233-1.811-0.891-3.178-1.972-4.104c-1.08-0.924-2.556-1.387-4.425-1.387s-3.363,0.463-4.483,1.387
		C61.69,30.823,60.975,32.19,60.663,34H73.689z"/>
	<path class="st0" d="M113.119,22.639l4.147,14.837c0.077,0.293,0.18,0.809,0.307,1.549c0.126,0.74,0.354,2.259,0.687,4.556
		c0.175-0.896,0.395-1.84,0.657-2.833s0.589-2.103,0.979-3.329l4.469-14.779h9.054l-9.931,28.652h-8.879l-4.293-14.837
		c-0.078-0.272-0.205-0.711-0.38-1.314c-0.643-2.239-1.11-4.069-1.402-5.491c-0.253,1.324-0.501,2.531-0.744,3.622
		c-0.244,1.091-0.502,2.112-0.774,3.066l-4.41,14.954h-8.85l-9.931-28.652h9.084l4.381,14.224c0.389,1.285,0.71,2.449,0.964,3.49
		c0.253,1.042,0.467,2.108,0.643,3.198c0.155-1.188,0.34-2.331,0.555-3.432c0.214-1.1,0.467-2.166,0.76-3.198l3.826-14.282H113.119z
		"/>
	<path class="st0" d="M134.294,46.268l6.396-3.301c0.214,1.11,0.788,1.986,1.724,2.629c0.935,0.643,2.093,0.964,3.476,0.964
		c1.362,0,2.434-0.248,3.212-0.745c0.779-0.496,1.169-1.183,1.169-2.059c0-1.383-1.383-2.541-4.147-3.476
		c-0.857-0.292-1.538-0.536-2.045-0.73c-3.368-1.266-5.7-2.541-6.995-3.826s-1.942-2.872-1.942-4.761
		c0-2.804,1.101-5.072,3.301-6.806c2.2-1.732,5.102-2.599,8.704-2.599c2.57,0,4.794,0.516,6.674,1.548
		c1.879,1.032,3.246,2.492,4.104,4.381l-6.104,3.037c-0.331-1.07-0.905-1.884-1.724-2.438c-0.817-0.555-1.84-0.832-3.066-0.832
		s-2.22,0.253-2.979,0.759c-0.759,0.507-1.139,1.169-1.139,1.986c0,1.422,1.889,2.745,5.666,3.972
		c0.448,0.137,0.789,0.244,1.022,0.321c3.135,1.033,5.364,2.234,6.688,3.607s1.986,3.121,1.986,5.243
		c0,2.843-1.101,5.102-3.301,6.775c-2.2,1.675-5.17,2.512-8.908,2.512c-2.96,0-5.486-0.55-7.579-1.649
		C136.392,49.68,134.995,48.176,134.294,46.268z"/>
</g>
<polygon class="st0" points="3.186,118.945 3.186,62.406 59.725,62.406 "/>
<circle class="st0" cx="55.687" cy="111.541" r="7.404"/>
</svg>