<!-- Generator: Adobe Illustrator 21.1.0, SVG Export Plug-In  -->
<svg version="1.1"
	 xmlns="http://www.w3.org/2000/svg" xmlns:xlink="http://www.w3.org/1999/xlink" xmlns:a="http://ns.adobe.com/AdobeSVGViewerExtensions/3.0/"
	 x="0px" y="0px" width="27.817px" height="26.862px" viewBox="0 0 27.817 26.862"
	 style="enable-background:new 0 0 27.817 26.862;" xml:space="preserve">
<style type="text/css">
	.st0{fill:#FFFFFF;}
</style>
<defs>
</defs>
<g>
	<path class="st0" d="M10.45,23.767c0,0.681,0.002,1.339,0,1.996c-0.003,1.048-0.35,1.309-1.328,0.943
		c-2.986-1.115-5.376-2.994-7.049-5.714C-3.232,12.363,2.176,1.3,12.269,0.101c8.355-0.993,15.589,5.462,15.548,13.871
		c-0.028,5.58-3.869,10.944-9.129,12.746c-0.974,0.334-1.306,0.091-1.305-0.965c0.001-0.991,0.082-1.989-0.009-2.972
		c-0.091-0.981-0.351-1.947-0.537-2.918c0.63-0.167,1.495-0.318,2.301-0.623c2.761-1.044,3.785-3.432,3.611-6.555
		c-0.048-0.867-0.402-1.774-0.828-2.545c-0.323-0.585-0.524-1.059-0.356-1.724c0.104-0.41,0.069-0.876,0.007-1.304
		c-0.239-1.65-0.424-1.748-2.016-1.17c-0.129,0.047-0.275,0.076-0.38,0.157c-1.198,0.932-2.501,0.836-3.934,0.666
		c-1.393-0.165-2.836,0.118-4.259,0.171c-0.351,0.013-0.729-0.046-1.058-0.169C9.032,6.434,8.162,6.033,7.271,5.687
		C6.767,5.492,6.442,5.749,6.403,6.243C6.334,7.108,6.343,7.98,6.301,8.848C6.287,9.127,6.3,9.461,6.157,9.672
		c-2.885,4.265-0.509,9.497,4.612,10.122c0.135,0.016,0.271,0.026,0.407,0.038c-0.228,0.542-0.418,1.082-0.683,1.583
		c-0.109,0.205-0.355,0.399-0.58,0.472c-1.375,0.445-2.508,0-3.394-1.178C6.133,20.195,5.65,19.71,5.112,19.37
		c-0.358-0.226-0.892-0.173-1.482-0.266c0.103,0.332,0.102,0.477,0.168,0.52c1.034,0.671,1.609,1.673,2.165,2.739
		c0.49,0.938,1.43,1.34,2.478,1.398C9.069,23.795,9.701,23.767,10.45,23.767z"/>
</g>
</svg>