<!-- Generator: Adobe Illustrator 21.1.0, SVG Export Plug-In  -->
<svg version="1.1"
	 xmlns="http://www.w3.org/2000/svg" xmlns:xlink="http://www.w3.org/1999/xlink" xmlns:a="http://ns.adobe.com/AdobeSVGViewerExtensions/3.0/"
	 x="0px" y="0px" width="257.402px" height="192.945px" viewBox="0 0 257.402 192.945"
	 style="enable-background:new 0 0 257.402 192.945;" xml:space="preserve">
<style type="text/css">
	.st0{fill:#FFFFFF;}
	.st1{font-family:'FuturaBT-Heavy';}
	.st2{font-size:59.8162px;}
</style>
<defs>
</defs>
<g>
	<path class="st0" d="M26.023,28.744h19.481c0.039,0.253,0.062,0.525,0.073,0.817c0.009,0.292,0.015,0.74,0.015,1.344
		c0,6.406-1.831,11.596-5.491,15.567c-3.661,3.973-8.393,5.958-14.195,5.958c-6.64,0-12.111-2.117-16.414-6.353
		c-4.304-4.234-6.455-9.613-6.455-16.137c0-6.464,2.162-11.81,6.484-16.034c4.322-4.226,9.784-6.338,16.385-6.338
		c3.485,0,6.679,0.729,9.58,2.19c2.901,1.46,5.491,3.641,7.77,6.542l-6.163,4.557c-1.538-1.908-3.154-3.286-4.848-4.133
		c-1.694-0.848-3.651-1.271-5.871-1.271c-4.226,0-7.604,1.314-10.135,3.942c-2.531,2.629-3.797,6.144-3.797,10.544
		c0,4.323,1.271,7.813,3.812,10.471c2.541,2.658,5.855,3.987,9.945,3.987c2.998,0,5.432-0.706,7.302-2.118
		c1.869-1.411,2.804-3.256,2.804-5.534v-0.468H26.023V28.744z"/>
	<path class="st0" d="M60.138,30c0.837-2.784,2.039-4.867,3.607-6.25c1.566-1.383,3.509-2.074,5.826-2.074
		c0.526,0,1.393,0.098,2.6,0.292c0.233,0.039,0.409,0.068,0.525,0.088l-1.256,8.938c-0.623-0.253-1.251-0.442-1.884-0.569
		s-1.3-0.19-2-0.19c-2.532,0-4.353,0.647-5.462,1.942c-1.11,1.295-1.665,3.461-1.665,6.499v12.617h-8.324V22.64h8.207L60.138,30z"/>
	<path class="st0" d="M106.605,37.068c0,4.4-1.504,8.061-4.512,10.981c-3.009,2.921-6.82,4.381-11.435,4.381
		c-4.654,0-8.49-1.46-11.508-4.381c-3.019-2.921-4.527-6.581-4.527-10.981c0-4.381,1.519-8.042,4.557-10.982
		c3.037-2.939,6.863-4.41,11.479-4.41c4.634,0,8.45,1.451,11.449,4.352C105.106,28.93,106.605,32.609,106.605,37.068z M98.136,37.01
		c0-2.337-0.682-4.201-2.045-5.593c-1.362-1.393-3.193-2.089-5.49-2.089c-2.298,0-4.118,0.691-5.462,2.074s-2.016,3.252-2.016,5.607
		c0,2.337,0.672,4.206,2.016,5.607c1.344,1.402,3.164,2.104,5.462,2.104c2.278,0,4.104-0.701,5.477-2.104
		C97.449,41.216,98.136,39.347,98.136,37.01z"/>
	<path class="st0" d="M121.035,22.64v15.071c0,2.531,0.491,4.342,1.475,5.433s2.585,1.635,4.805,1.635c2.2,0,3.797-0.55,4.79-1.649
		c0.993-1.101,1.489-2.906,1.489-5.418V22.64h8.324v15.071c0,5.043-1.179,8.757-3.534,11.143c-2.356,2.385-6.007,3.577-10.953,3.577
		c-5.043,0-8.747-1.188-11.113-3.562c-2.365-2.376-3.548-6.095-3.548-11.157V22.64H121.035z"/>
	<path class="st0" d="M149.92,64.318V22.64h7.974v4.731c1.091-1.908,2.429-3.334,4.017-4.278c1.586-0.944,3.432-1.417,5.534-1.417
		c4.069,0,7.253,1.349,9.551,4.045c2.298,2.697,3.446,6.46,3.446,11.289c0,4.654-1.158,8.388-3.476,11.201s-5.364,4.22-9.142,4.22
		c-2.278,0-4.211-0.423-5.798-1.271c-1.587-0.847-2.945-2.176-4.074-3.986c0.097,0.721,0.17,1.504,0.219,2.352
		c0.049,0.847,0.073,1.815,0.073,2.905v11.888H149.92z M157.514,36.922c0,2.59,0.638,4.605,1.913,6.046
		c1.275,1.441,3.053,2.161,5.331,2.161c2.277,0,4.055-0.72,5.33-2.161c1.274-1.44,1.913-3.456,1.913-6.046
		c0-2.589-0.647-4.629-1.942-6.119c-1.295-1.489-3.081-2.234-5.359-2.234c-2.201,0-3.948,0.75-5.243,2.249
		C158.161,32.317,157.514,34.352,157.514,36.922z"/>
	<path class="st0" d="M2.045,110.859l5.082-5.754c0.643,1.577,1.674,2.818,3.096,3.724c1.421,0.906,3.018,1.358,4.79,1.358
		c2.142,0,3.836-0.506,5.082-1.519s1.869-2.375,1.869-4.089c0-2.025-2.074-4.04-6.222-6.046c-1.343-0.643-2.404-1.168-3.184-1.577
		C8.82,95.01,6.23,93.106,4.79,91.247c-1.441-1.859-2.161-4.074-2.161-6.645c0-3.524,1.396-6.421,4.191-8.689
		c2.793-2.269,6.42-3.402,10.879-3.402c2.59,0,4.824,0.452,6.703,1.357c1.879,0.906,3.539,2.322,4.98,4.25l-5.403,5.17
		c-0.643-1.246-1.495-2.176-2.556-2.789c-1.062-0.613-2.342-0.92-3.841-0.92c-1.812,0-3.271,0.452-4.382,1.357
		c-1.109,0.905-1.664,2.079-1.664,3.52c0,2.259,2.2,4.323,6.601,6.192c0.876,0.37,1.548,0.662,2.016,0.876
		c3.621,1.655,6.304,3.524,8.046,5.607c1.742,2.084,2.614,4.459,2.614,7.127c0,4.012-1.368,7.209-4.104,9.595
		c-2.736,2.385-6.411,3.577-11.025,3.577c-3.271,0-6.075-0.564-8.412-1.693S3.193,112.982,2.045,110.859z"/>
	<path class="st0" d="M58.678,115.445c-1.13,0.682-2.317,1.183-3.563,1.504s-2.609,0.481-4.089,0.481
		c-4.518,0-8.197-1.436-11.04-4.308c-2.844-2.872-4.265-6.605-4.265-11.201c0-4.498,1.432-8.163,4.294-10.996
		s6.571-4.25,11.127-4.25c1.52,0,2.882,0.146,4.09,0.438c1.207,0.292,2.355,0.75,3.446,1.372l-0.059,8.354
		c-0.876-0.896-1.889-1.587-3.037-2.073c-1.149-0.486-2.366-0.73-3.651-0.73c-2.337,0-4.206,0.716-5.607,2.146
		c-1.402,1.432-2.104,3.325-2.104,5.681c0,2.415,0.716,4.338,2.147,5.769c1.431,1.432,3.363,2.146,5.797,2.146
		c1.344,0,2.536-0.243,3.578-0.729c1.041-0.486,2.001-1.246,2.877-2.278L58.678,115.445z"/>
	<path class="st0" d="M64.956,116.292V71.021h8.149v16.094c0,0.896-0.029,1.786-0.088,2.672c-0.059,0.887-0.146,1.748-0.263,2.585
		c1.713-2.005,3.432-3.456,5.154-4.352c1.724-0.896,3.646-1.344,5.769-1.344c2.22,0,4.094,0.38,5.623,1.14
		c1.528,0.759,2.711,1.898,3.548,3.417c0.429,0.799,0.735,1.699,0.921,2.701c0.185,1.003,0.277,2.575,0.277,4.718v0.905v16.735
		h-8.324v-14.165c0-3.524-0.409-5.852-1.227-6.98c-0.818-1.13-2.22-1.694-4.206-1.694c-1.149,0-2.205,0.238-3.169,0.716
		c-0.964,0.477-1.767,1.153-2.409,2.029c-0.507,0.682-0.872,1.461-1.096,2.337s-0.336,2.21-0.336,4.001v1.14v12.617H64.956z"/>
	<path class="st0" d="M129.913,104.025h-21.525c0.331,2.063,1.081,3.606,2.249,4.629s2.755,1.533,4.761,1.533
		c1.519,0,2.828-0.292,3.929-0.876c1.1-0.584,2.02-1.47,2.76-2.658l6.718,3.359c-1.559,2.512-3.446,4.376-5.666,5.593
		c-2.221,1.217-4.859,1.825-7.916,1.825c-4.634,0-8.305-1.382-11.011-4.147c-2.707-2.765-4.06-6.483-4.06-11.156
		c0-4.498,1.416-8.197,4.249-11.1c2.834-2.9,6.46-4.352,10.88-4.352c4.557,0,8.158,1.358,10.807,4.074
		c2.648,2.717,3.973,6.421,3.973,11.113c0,0.254-0.011,0.531-0.029,0.833C130.011,102.998,129.972,103.44,129.913,104.025z
		 M121.677,99.001c-0.233-1.811-0.891-3.178-1.972-4.104c-1.08-0.924-2.556-1.387-4.425-1.387s-3.363,0.463-4.483,1.387
		c-1.119,0.926-1.835,2.293-2.146,4.104H121.677z"/>
	<path class="st0" d="M164.933,116.292h-8.062l0.117-4.118c-1.13,1.811-2.487,3.14-4.074,3.986c-1.588,0.848-3.52,1.271-5.798,1.271
		c-3.797,0-6.859-1.411-9.186-4.234c-2.327-2.823-3.49-6.552-3.49-11.187c0-4.849,1.144-8.626,3.432-11.332
		c2.288-2.707,5.467-4.061,9.536-4.061c2.083,0,3.914,0.478,5.491,1.432s3.057,2.463,4.439,4.527
		c-0.098-0.701-0.171-1.476-0.22-2.322s-0.072-1.815-0.072-2.906V71.021h7.886V116.292z M157.339,101.922
		c0-2.57-0.647-4.604-1.942-6.104c-1.295-1.499-3.043-2.249-5.243-2.249c-2.259,0-4.035,0.735-5.33,2.206
		c-1.295,1.47-1.942,3.5-1.942,6.089c0,2.59,0.638,4.615,1.913,6.075c1.275,1.461,3.042,2.19,5.302,2.19
		c2.297,0,4.078-0.72,5.345-2.161C156.706,106.527,157.339,104.512,157.339,101.922z"/>
	<path class="st0" d="M181.23,87.64v15.071c0,2.531,0.491,4.342,1.475,5.433s2.585,1.635,4.805,1.635c2.2,0,3.797-0.55,4.79-1.649
		c0.993-1.101,1.489-2.906,1.489-5.418V87.64h8.324v15.071c0,5.043-1.179,8.757-3.534,11.143c-2.356,2.385-6.007,3.577-10.953,3.577
		c-5.043,0-8.747-1.188-11.113-3.562c-2.365-2.376-3.548-6.095-3.548-11.157V87.64H181.23z"/>
	<path class="st0" d="M210.438,116.292V71.021h8.295v45.271H210.438z"/>
	<path class="st0" d="M255.153,104.025h-21.525c0.331,2.063,1.081,3.606,2.249,4.629s2.755,1.533,4.761,1.533
		c1.519,0,2.828-0.292,3.929-0.876c1.1-0.584,2.02-1.47,2.76-2.658l6.718,3.359c-1.559,2.512-3.446,4.376-5.666,5.593
		c-2.221,1.217-4.859,1.825-7.916,1.825c-4.634,0-8.305-1.382-11.011-4.147c-2.707-2.765-4.06-6.483-4.06-11.156
		c0-4.498,1.416-8.197,4.249-11.1c2.834-2.9,6.46-4.352,10.88-4.352c4.557,0,8.158,1.358,10.807,4.074
		c2.648,2.717,3.973,6.421,3.973,11.113c0,0.254-0.011,0.531-0.029,0.833C255.251,102.998,255.212,103.44,255.153,104.025z
		 M246.917,99.001c-0.233-1.811-0.891-3.178-1.972-4.104c-1.08-0.924-2.556-1.387-4.425-1.387s-3.363,0.463-4.483,1.387
		c-1.119,0.926-1.835,2.293-2.146,4.104H246.917z"/>
</g>
<polygon class="st0" points="7.853,192.945 7.853,136.406 64.392,136.406 "/>
<circle class="st0" cx="60.353" cy="185.541" r="7.404"/>
</svg>